<?xml version="1.0" encoding="UTF-8" standalone="no"?>
<svg
   xmlns:dc="http://purl.org/dc/elements/1.1/"
   xmlns:cc="http://creativecommons.org/ns#"
   xmlns:rdf="http://www.w3.org/1999/02/22-rdf-syntax-ns#"
   xmlns:svg="http://www.w3.org/2000/svg"
   xmlns="http://www.w3.org/2000/svg"
   viewBox="0 0 1454.6667 1773.3333"
   height="1773.3333"
   width="1454.6667"
   xml:space="preserve"
   id="svg2"
   version="1.1"><metadata
     id="metadata8"><rdf:RDF><cc:Work
         rdf:about=""><dc:format>image/svg+xml</dc:format><dc:type
           rdf:resource="http://purl.org/dc/dcmitype/StillImage" /></cc:Work></rdf:RDF></metadata><defs
     id="defs6"><clipPath
       id="clipPath20"
       clipPathUnits="userSpaceOnUse"><path
         id="path18"
         d="m 2.5,1327.518 c 0,0 1086,0 1086,0 0,0 0,-1325.035759 0,-1325.035759 0,0 -1086,0 -1086,0 0,0 0,1325.035759 0,1325.035759" /></clipPath><clipPath
       id="clipPath26"
       clipPathUnits="userSpaceOnUse"><path
         id="path24"
         d="M 0,0 H 1091 V 1330 H 0 Z" /></clipPath><clipPath
       id="clipPath36"
       clipPathUnits="userSpaceOnUse"><path
         id="path34"
         d="m 86.87292,1242.988 c 0,0 917.25408,0 917.25408,0 0,0 0,-917.2546 0,-917.2546 0,0 -917.25408,0 -917.25408,0 0,0 0,917.2546 0,917.2546" /></clipPath><clipPath
       id="clipPath42"
       clipPathUnits="userSpaceOnUse"><path
         id="path40"
         d="M 0,0 H 1091 V 1330 H 0 Z" /></clipPath><clipPath
       id="clipPath52"
       clipPathUnits="userSpaceOnUse"><path
         id="path50"
         d="M 808.2491,1138.265 V 586.068 l -29.8543,29.8543 -15.4288,15.4288 -3.1594,3.1594 -3.1829,3.1828 -130.0585,130.0586 -7.4729,7.4729 -30.0571,30.0571 -3.7682,3.7682 -3.7691,3.7691 -135.8985,135.8985 -3.4631,3.4631 -3.4461,3.4461 -36.6515,36.6515 -3.2058,3.2059 -3.1829,3.1828 -55.4908,55.4909 -2.6261,2.626 -2.5934,2.593 -2.5602,2.561 -2.5267,2.526 -2.4926,2.493 -68.9785,68.978 -0.484,0.484 -0.4288,0.429 -1.4168,1.417 -0.0467,-0.047 -1.072,-1.072 -0.4746,-0.474 -0.5513,-0.552 -0.625,-0.625 -1.4595,-1.459 -0.8287,-0.829 -0.8905,-0.89 -0.9497,-0.95 -1.0056,-1.006 -1.0588,-1.058 -4.7072,-4.708 -1.28,-1.28 -1.3155,-1.315 -15.9632,-15.963 -1.5102,-1.511 -1.5072,-1.507 -2.9939,-2.994 -1.4807,-1.48 -1.466,-1.466 -13.1989,-13.199 -1.109,-1.109 -1.0587,-1.059 -1.9553,-1.955 -0.8906,-0.891 -0.8286,-0.829 -4.2292,-4.229 0.0294,-0.029 0.0878,-0.088 0.1458,-0.146 0.2033,-0.203 0.2604,-0.26 0.6901,-0.69 0.4288,-0.429 0.484,-0.484 0.5387,-0.539 1.24,-1.24 0.7003,-0.7 0.7532,-0.753 1.6634,-1.664 0.9092,-0.909 0.9602,-0.96 8.1135,-8.114 1.3524,-1.352 1.3992,-1.399 1.4458,-1.446 1.4918,-1.492 1.5373,-1.537 1.5824,-1.583 10.4158,-10.415 1.8852,-1.886 7.9503,-7.95 2.0877,-2.088 2.1268,-2.126 4.3691,-4.37 2.2413,-2.241 2.2787,-2.279 7.0549,-7.054 2.4232,-2.424 4.9507,-4.95 2.5267,-2.527 2.5602,-2.5603 2.5934,-2.5934 2.6261,-2.626 2.6583,-2.6583 2.69,-2.6901 2.7213,-2.7213 16.9593,-16.9592 2.9274,-2.9275 5.9373,-5.9373 3.009,-3.0089 3.0351,-3.0351 3.0609,-3.0609 9.3328,-9.3329 3.1594,-3.1593 3.1829,-3.1828 3.2058,-3.206 6.4789,-6.4789 3.2722,-3.2721 3.2933,-3.2933 23.6071,-23.6071 3.4461,-3.4461 6.9427,-6.9427 17.6307,-17.6308 3.5694,-3.5693 3.5828,-3.5828 3.5956,-3.5956 3.6081,-3.6081 18.2105,-18.2105 3.6729,-3.6729 3.6821,-3.6822 3.6909,-3.6908 3.6992,-3.6992 7.4213,-7.4214 3.7212,-3.7212 7.4614,-7.4613 3.7392,-3.7393 3.7443,-3.7442 3.7488,-3.7488 22.564,-22.564 3.7682,-3.7683 3.7691,-3.7691 7.5391,-7.5391 3.7692,-3.7691 3.7681,-3.7682 30.0572,-30.0571 3.7392,-3.7392 3.7336,-3.7337 3.7277,-3.7277 3.7213,-3.7212 18.4935,-18.4936 3.6729,-3.6729 3.6633,-3.6632 7.2957,-7.2957 3.6315,-3.6316 3.62,-3.62 3.6081,-3.608 3.5956,-3.5956 3.5828,-3.5828 7.1249,-7.125 3.5414,-3.5413 3.5266,-3.5266 7.0071,-7.0072 3.4797,-3.4796 3.4631,-3.4632 3.4461,-3.446 20.2931,-20.2932 6.6073,-6.6073 3.2721,-3.2721 3.2506,-3.2505 3.2283,-3.2284 3.2059,-3.2059 6.3423,-6.3422 3.1354,-3.1355 3.1111,-3.111 3.0862,-3.0863 3.0609,-3.0609 3.0352,-3.0352 5.9911,-5.9911 2.9551,-2.9551 8.6978,-8.6978 2.8419,-2.8418 9.3683,-9.3684 H 191.5955 V 430.456 h 707.809 v 707.809 z" /></clipPath><clipPath
       id="clipPath58"
       clipPathUnits="userSpaceOnUse"><path
         id="path56"
         d="M 0,0 H 1091 V 1330 H 0 Z" /></clipPath><clipPath
       id="clipPath68"
       clipPathUnits="userSpaceOnUse"><path
         id="path66"
         d="m 131.4482,207.3971 v -19.3806 h 49.282 v -44.5753 h -49.282 V 79.48538 H 86.87292 V 251.9724 H 200.9414 V 207.3971 Z M 285.6621,126.2756 H 263.236 V 79.48538 H 218.6607 V 251.9724 h 70.0469 c 17.7195,0 32.7623,-5.9064 45.129,-17.7194 12.3667,-11.813 18.55,-26.579 18.55,-44.2984 0,-19.7498 -8.029,-36.177 -24.0873,-49.282 l 31.0089,-61.18722 h -49.8357 z m -0.5538,83.0595 H 263.236 V 170.574 h 21.8723 c 6.8294,0 12.3667,1.8458 16.612,5.5373 4.2452,3.6916 6.3679,8.3059 6.3679,13.8433 0,5.7219 -2.1227,10.3824 -6.3679,13.9817 -4.2453,3.5992 -9.7826,5.3988 -16.612,5.3988 z m 137.3252,-1.938 v -19.3806 h 49.2819 v -44.5753 h -49.2819 v -19.3805 h 69.4931 V 79.48538 H 377.8582 V 251.9724 h 114.0684 v -44.5753 z m 81.952,-41.8067 v 0.2769 c 0,23.6259 8.1675,43.883 24.5026,60.7719 16.3351,16.8889 36.1308,25.3332 59.3876,25.3332 21.0418,0 39.3147,-6.9216 54.8193,-20.7649 l -29.6246,-33.7776 c -6.8294,6.6448 -15.2275,9.9672 -25.1947,9.9672 -10.8901,0 -20.165,-4.0607 -27.825,-12.1821 -7.66,-8.1214 -11.4899,-17.9039 -11.4899,-29.3477 v -0.2769 c 0,-11.4438 3.8299,-21.2262 11.4899,-29.3477 7.66,-8.1214 16.9349,-12.182 27.825,-12.182 9.598,0 17.9962,3.3223 25.1947,9.9671 L 643.095,100.2503 C 627.5904,86.40694 609.3175,79.48538 588.2757,79.48538 c -23.2568,0 -43.0525,8.4443 -59.3876,25.33312 -16.3351,16.8889 -24.5026,37.146 -24.5026,60.7719 z m 140.9244,0 v 0.2769 c 0,23.6259 8.1674,43.883 24.5025,60.7719 16.3352,16.8889 36.1308,25.3332 59.3876,25.3332 21.0419,0 39.3148,-6.9216 54.8193,-20.7649 l -29.6246,-33.7776 c -6.8293,6.6448 -15.2275,9.9672 -25.1947,9.9672 -10.8901,0 -20.165,-4.0607 -27.8249,-12.1821 -7.66,-8.1214 -11.4899,-17.9039 -11.4899,-29.3477 v -0.2769 c 0,-11.4438 3.8299,-21.2262 11.4899,-29.3477 7.6599,-8.1214 16.9348,-12.182 27.8249,-12.182 9.598,0 17.9962,3.3223 25.1947,9.9671 l 29.6246,-33.7775 C 768.5148,86.40694 750.2419,79.48538 729.2,79.48538 c -23.2568,0 -43.0524,8.4443 -59.3876,25.33312 -16.3351,16.8889 -24.5025,37.146 -24.5025,60.7719 z M 846.0371,79.48538 H 801.4618 V 251.9724 h 44.5753 z m 86.105,56.48052 -23.8104,-56.48052 H 860.1572 L 932.1421,251.9724 1003.85,79.48538 h -48.1743 z" /></clipPath><clipPath
       id="clipPath74"
       clipPathUnits="userSpaceOnUse"><path
         id="path72"
         d="M 0,0 H 1091 V 1330 H 0 Z" /></clipPath></defs><g
     transform="matrix(1.3333333,0,0,-1.3333333,0,1773.3333)"
     id="g10"><g
       id="g12" /><g
       id="g14"><g
         clip-path="url(#clipPath20)"
         id="g16"><g
           clip-path="url(#clipPath26)"
           id="g22"><path
             id="path28"
             style="fill:#ffffff;fill-opacity:1;fill-rule:nonzero;stroke:none"
             d="m 2.5,2.482241 h 1086 V 1327.5182 H 2.5 Z" /></g></g></g><g
       id="g30"><g
         clip-path="url(#clipPath36)"
         id="g32"><g
           clip-path="url(#clipPath42)"
           id="g38"><path
             id="path44"
             style="fill:#000000;fill-opacity:1;fill-rule:nonzero;stroke:none"
             d="m 86.87292,325.7334 h 917.25418 v 917.2542 H 86.87292 Z" /></g></g></g><g
       id="g46"><g
         clip-path="url(#clipPath52)"
         id="g48"><g
           clip-path="url(#clipPath58)"
           id="g54"><path
             id="path60"
             style="fill:#ffffff;fill-opacity:1;fill-rule:nonzero;stroke:none"
             d="m 191.5955,430.456 h 707.809 v 707.809 h -707.809 z" /></g></g></g><g
       id="g62"><g
         clip-path="url(#clipPath68)"
         id="g64"><g
           clip-path="url(#clipPath74)"
           id="g70"><path
             id="path76"
             style="fill:#000000;fill-opacity:1;fill-rule:nonzero;stroke:none"
             d="m 86.87292,79.48538 h 917.25418 v 172.487 H 86.87292 Z" /></g></g></g></g></svg>